<?xml version="1.0" standalone="no"?>
<svg class="grid_svg__RI0bx w-full h-full pb-[0.2rem] overflow-visible" xmlns="http://www.w3.org/2000/svg" viewBox="0 0 399 797" style="color: rgb(168, 161, 154); background: rgb(255, 255, 255);"><g><g transform="translate(-0, -0)"><g transform="translate(0, 0)"><rect class="cursor-pointer" width="200" height="200" fill="transparent"></rect></g></g><g transform="translate(-1, -0)"><g transform="translate(200, 0)"><rect class="cursor-pointer" width="200" height="200" fill="transparent"></rect></g></g><g transform="translate(-0, -1)"><g transform="translate(0, 200)"><rect class="cursor-pointer" width="200" height="200" fill="transparent"></rect></g></g><g transform="translate(-1, -1)"><g transform="translate(200, 200)"><rect class="cursor-pointer" width="200" height="200" fill="transparent"></rect></g></g><g transform="translate(-0, -2)"><g transform="translate(0, 400)"><rect class="cursor-pointer" width="200" height="200" fill="transparent"></rect></g></g><g transform="translate(-1, -2)"><g transform="translate(200, 400)"><rect class="cursor-pointer" width="200" height="200" fill="transparent"></rect></g></g><g transform="translate(-0, -3)"><g transform="translate(0, 600)"><rect class="cursor-pointer" width="200" height="200" fill="transparent"></rect></g></g><g transform="translate(-1, -3)"><g transform="translate(200, 600)"><rect class="cursor-pointer" width="200" height="200" fill="transparent"></rect></g></g></g><g class="pointer-events-none" transform="translate(0, 0)"><g transform=""><g><path fill-rule="evenodd" clip-rule="evenodd" d="M100 35C64.065 35 35 64.065 35 100H0C0 44.735 44.735 0 100 0V35Z" fill="currentColor"></path><path fill-rule="evenodd" clip-rule="evenodd" d="M200 35C164.065 35 135 64.065 135 100H100C100 44.735 144.735 0 200 0V35Z" fill="currentColor"></path></g></g></g><g class="pointer-events-none" transform="translate(199, 0)"><g transform=""><g><path fill-rule="evenodd" clip-rule="evenodd" d="M99.5 75.8808C86.4554 75.8808 75.8808 86.4555 75.8808 99.5C75.8808 112.545 86.4554 123.119 99.5 123.119C112.545 123.119 123.119 112.545 123.119 99.5C123.119 86.4555 112.545 75.8808 99.5 75.8808ZM41 99.5C41 67.1913 67.1914 41 99.5 41C131.809 41 158 67.1913 158 99.5C158 131.809 131.809 158 99.5 158C67.1914 158 41 131.809 41 99.5Z" fill="currentColor"></path></g></g></g><g class="pointer-events-none" transform="translate(0, 199)"><g transform=""><g><path fill-rule="evenodd" clip-rule="evenodd" d="M100 165C64.065 165 35 135.935 35 100H0C0 155.265 44.735 200 100 200V165Z" fill="currentColor"></path><path fill-rule="evenodd" clip-rule="evenodd" d="M200 65C164.065 65 135 35.935 135 0H100C100 55.265 144.735 100 200 100V65Z" fill="currentColor"></path></g></g></g><g class="pointer-events-none" transform="translate(199, 199)"><g transform=""></g></g><g class="pointer-events-none" transform="translate(0, 398)"><g transform=""><g><path fill-rule="evenodd" clip-rule="evenodd" d="M0 165H200V200H0V165Z" fill="currentColor"></path></g></g></g><g class="pointer-events-none" transform="translate(199, 398)"><g transform=""><g><path fill-rule="evenodd" clip-rule="evenodd" d="M100 35C64.065 35 35 64.065 35 100H0C0 44.735 44.735 0 100 0V35Z" fill="currentColor"></path><path fill-rule="evenodd" clip-rule="evenodd" d="M100 135C64.065 135 35 164.065 35 200H0C0 144.735 44.735 100 100 100V135Z" fill="currentColor"></path><path fill-rule="evenodd" clip-rule="evenodd" d="M200 35C164.065 35 135 64.065 135 100H100C100 44.735 144.735 0 200 0V35Z" fill="currentColor"></path><path fill-rule="evenodd" clip-rule="evenodd" d="M200 135C164.065 135 135 164.065 135 200H100C100 144.735 144.735 100 200 100V135Z" fill="currentColor"></path></g></g></g><g class="pointer-events-none" transform="translate(0, 597)"><g transform=""><g><path fill-rule="evenodd" clip-rule="evenodd" d="M200 165C164.065 165 135 135.935 135 100H100C100 155.265 144.735 200 200 200V165Z" fill="currentColor"></path><path fill-rule="evenodd" clip-rule="evenodd" d="M100 65C64.065 65 35 35.935 35 0H0C0 55.265 44.735 100 100 100V65Z" fill="currentColor"></path></g></g></g><g class="pointer-events-none" transform="translate(199, 597)"><g transform=""></g></g><g><defs><filter id="cellMenuA" x="30.322" y="2.695" width="40.429" height="40.429" filterUnits="userSpaceOnUse" color-interpolation-filters="sRGB"><feFlood flood-opacity="0" result="BackgroundImageFix"></feFlood><feColorMatrix in="SourceAlpha" values="0 0 0 0 0 0 0 0 0 0 0 0 0 0 0 0 0 0 127 0" result="hardAlpha"></feColorMatrix><feOffset dy="2.695"></feOffset><feGaussianBlur stdDeviation="3.369"></feGaussianBlur><feComposite in2="hardAlpha" operator="out"></feComposite><feColorMatrix values="0 0 0 0 0.356863 0 0 0 0 0.368627 0 0 0 0 0.368627 0 0 0 0.22 0"></feColorMatrix><feBlend in2="BackgroundImageFix" result="effect1_dropShadow"></feBlend><feBlend in="SourceGraphic" in2="effect1_dropShadow" result="shape"></feBlend></filter><filter id="cellMenuB" x="30.322" y="34.365" width="40.429" height="40.429" filterUnits="userSpaceOnUse" color-interpolation-filters="sRGB"><feFlood flood-opacity="0" result="BackgroundImageFix"></feFlood><feColorMatrix in="SourceAlpha" values="0 0 0 0 0 0 0 0 0 0 0 0 0 0 0 0 0 0 127 0" result="hardAlpha"></feColorMatrix><feOffset dy="2.695"></feOffset><feGaussianBlur stdDeviation="3.369"></feGaussianBlur><feComposite in2="hardAlpha" operator="out"></feComposite><feColorMatrix values="0 0 0 0 0.356863 0 0 0 0 0.368627 0 0 0 0 0.368627 0 0 0 0.22 0"></feColorMatrix><feBlend in2="BackgroundImageFix" result="effect1_dropShadow"></feBlend><feBlend in="SourceGraphic" in2="effect1_dropShadow" result="shape"></feBlend></filter><filter id="cellMenuC" x="1.348" y="18.867" width="40.429" height="40.429" filterUnits="userSpaceOnUse" color-interpolation-filters="sRGB"><feFlood flood-opacity="0" result="BackgroundImageFix"></feFlood><feColorMatrix in="SourceAlpha" values="0 0 0 0 0 0 0 0 0 0 0 0 0 0 0 0 0 0 127 0" result="hardAlpha"></feColorMatrix><feOffset dy="2.695"></feOffset><feGaussianBlur stdDeviation="3.369"></feGaussianBlur><feComposite in2="hardAlpha" operator="out"></feComposite><feColorMatrix values="0 0 0 0 0.356863 0 0 0 0 0.368627 0 0 0 0 0.368627 0 0 0 0.22 0"></feColorMatrix><feBlend in2="BackgroundImageFix" result="effect1_dropShadow"></feBlend><feBlend in="SourceGraphic" in2="effect1_dropShadow" result="shape"></feBlend></filter></defs></g></svg>