<svg width="16" height="16" viewBox="0 0 16 16" fill="none" xmlns="http://www.w3.org/2000/svg">
<g clip-path="url(#clip0_325_1179)">
<path d="M4.57141 5.71428H6.50511C6.54792 4.86829 7.09492 4.1315 7.99998 4.1315C8.90505 4.1315 9.4857 4.69238 9.4857 5.48571C9.4857 6.20095 9.26331 6.49351 8.34284 7.08571C7.35815 7.70866 6.84436 8.34608 6.93713 9.57661L7.01713 10.2857H8.90284L8.8457 9.59199C8.8457 8.85367 9.2224 8.59219 10.1714 7.99999C11.1775 7.36165 11.6571 6.52504 11.6571 5.37142C11.6571 3.59484 10.2693 2.28571 8.22855 2.28571C6.03798 2.28571 4.57141 3.65714 4.57141 5.71428Z" fill="#000"/>
<path d="M7.97501 13.9329C8.77418 13.9329 9.26652 13.4329 9.26652 12.6254C9.26652 11.8102 8.77418 11.3103 7.97501 11.3103C7.17584 11.3103 6.67636 11.8102 6.67636 12.6254C6.67636 13.4329 7.17584 13.9329 7.97501 13.9329Z" fill="#000"/>
<path fill-rule="evenodd" clip-rule="evenodd" d="M16 8C16 12.4183 12.4183 16 8 16C3.58172 16 0 12.4183 0 8C0 3.58172 3.58172 0 8 0C12.4183 0 16 3.58172 16 8ZM15 8C15 11.866 11.866 15 8 15C4.13401 15 1 11.866 1 8C1 4.13401 4.13401 1 8 1C11.866 1 15 4.13401 15 8Z" fill="#000"/>
</g>
<defs>
<clipPath id="clip0_325_1179">
<rect width="16" height="16" fill="white"/>
</clipPath>
</defs>
</svg>
