<svg width="16" height="14" viewBox="0 0 16 14" fill="none" xmlns="http://www.w3.org/2000/svg">
<g clip-path="url(#clip0_325_1170)">
<path d="M4.49805 0.5C3.94576 0.5 3.49805 0.947715 3.49805 1.5V9.5C3.49805 10.0523 3.94576 10.5 4.49805 10.5H14.498C15.0503 10.5 15.498 10.0523 15.498 9.5V2.5C15.498 1.94772 15.0503 1.5 14.498 1.5H8.49805C8.49805 0.947715 8.05033 0.5 7.49805 0.5H4.49805Z" fill="black"/>
<path d="M2.49805 4.5H1.49805C0.945762 4.5 0.498047 4.94772 0.498047 5.5V12.5C0.498047 13.0523 0.945762 13.5 1.49805 13.5H11.498C12.0503 13.5 12.498 13.0523 12.498 12.5V11.5H3.49805C2.94576 11.5 2.49805 11.0523 2.49805 10.5V4.5Z" fill="black"/>
</g>
<defs>
<clipPath id="clip0_325_1170">
<rect width="16" height="14" fill="white" transform="translate(-0.00195312)"/>
</clipPath>
</defs>
</svg>
