<svg width="12" height="15" viewBox="0 0 12 15" fill="none" xmlns="http://www.w3.org/2000/svg">
<path fill-rule="evenodd" clip-rule="evenodd" d="M11.999 5.41422C11.999 5.0164 11.8409 4.63487 11.5596 4.35357L7.64545 0.439343C7.36414 0.158037 6.98261 0 6.58478 0L0.999023 1.07031e-05C0.446739 1.07031e-05 -0.000976562 0.447726 -0.000976562 1.00001V14C-0.000976562 14.5523 0.446738 15 0.999023 15H10.999C11.5513 15 11.999 14.5523 11.999 14V6.00001L11.999 5.99077V5.41422ZM10.7919 5.00001H7.49902C7.22288 5.00001 6.99902 4.77615 6.99902 4.50001V1.20713L10.7919 5.00001ZM8.99902 9.00002H1.99902V8.00002H8.99902V9.00002ZM1.99902 12H6.99902V11H1.99902V12Z" fill="black"/>
</svg>
